<svg xmlns="http://www.w3.org/2000/svg" xmlns:xlink="http://www.w3.org/1999/xlink" version="1.1" x="0px" y="0px" viewBox="0 0 100 100" enable-background="new 0 0 100 100" xml:space="preserve"><rect x="25" y="56" width="50" height="30"></rect><rect x="25" y="47" width="50" height="6"></rect><rect x="5" y="89" width="90" height="6"></rect><path d="M57,32c0,3.309-2.691,6-6,6H26h-1v6h1h25c6.617,0,12-5.383,12-12H57z"></path><polygon points="95,9 69,9 69,5 51,5 51,9 5,9 5,15 51,15 51,19 57,29 63,29 69,19 69,15 95,15 "></polygon></svg>