<svg xmlns="http://www.w3.org/2000/svg" xmlns:xlink="http://www.w3.org/1999/xlink" version="1.1" x="0px" y="0px" viewBox="0 0 100 100" enable-background="new 0 0 100 100" xml:space="preserve"><path d="M52.872,35.331c0-0.868,0-1.736,0-2.604c0.026-0.002,0.052-0.005,0.078-0.007c0,0.868,0,1.736,0,2.604  C52.923,35.326,52.897,35.329,52.872,35.331z M72.512,48.554c0.2-0.502,0.316-1.098,0.245-1.624c-0.044-0.33-0.447-0.7-0.781-0.881  c-0.395-0.213-0.89-0.24-1.461-0.376c-1.643,1.922-3.44,3.795-4.962,5.87c-1.524,2.077-2.894,4.292-4.11,6.565  c-1.217,2.274-2.246,4.66-3.197,7.06c-0.942,2.377-1.685,4.834-2.561,7.391c-0.926-0.608-1.718-1.202-2.577-1.674  c-1.532-0.842-2.808-2.125-4.547-2.611c-0.71-0.199-1.939-0.002-2.27,0.415c-0.613,0.771-1.216,1.551-1.859,2.297  c-0.91,1.055-0.924,1.043,0.027,2.162c0.332,0.391,0.619,0.837,1.007,1.161c0.345,0.288,0.789,0.471,1.21,0.652  c0.784,0.336,1.647,0.534,2.362,0.975c1.279,0.79,2.499,1.684,3.697,2.596c1.269,0.965,2.482,2.003,3.724,3.004  c0.625,0.504,1.118,0.549,1.616,0.151c0.434-0.347,0.886-0.679,1.275-1.072c0.221-0.224,0.462-0.553,0.472-0.842  c0.117-3.334,1.32-6.42,2.326-9.516c0.955-2.938,2.3-5.759,3.61-8.569c1.715-3.677,3.581-7.28,6.614-10.106  c0.063-0.059,0.153-0.118,0.17-0.191c0.103-0.439,0.361-0.95,0.223-1.303c-0.107-0.276-0.713-0.358-1.039-0.5  C71.944,49.31,72.343,48.978,72.512,48.554z M33.235,24.417c-0.473,0.08-0.987,0.061-1.189,0.603  c-0.285,0.764-0.61,1.527-0.765,2.321c-0.166,0.85,0.347,1.382,1.213,1.458c0.292,0.025,0.735-0.074,0.851,0.079  c0.566,0.748,1.089,0.364,1.691,0.09c0.545-0.248,1.131-0.46,1.72-0.544c1.877-0.267,3.758-0.542,5.647-0.676  c4.392-0.312,8.789-0.334,13.186-0.036c3.959,0.268,7.914,0.583,11.803,1.409c0.766,0.163,1.437,0.326,2.242,0.058  c0.61-0.203,1.356-0.1,2.02,0.002c0.507,0.079,0.846-0.025,1.107-0.426c0.305-0.469,0.628-0.933,0.872-1.434  c0.622-1.275,0.204-1.973-1.192-1.854c-3.214,0.273-6.374-0.266-9.538-0.613c-5.791-0.635-11.576-1.279-16.932-1.186  C41.388,23.657,37.293,23.731,33.235,24.417z M45.063,15.732c-0.258,0-0.517-0.003-0.775,0c-3.49,0.044-6.981,0.09-10.471,0.135  c-1.228,0.016-1.637,0.492-1.476,1.674c0.069,0.509,0.087,1.025,0.12,1.539c0.063,0.997,0.528,1.395,1.507,1.204  c5.752-1.117,11.583-0.945,17.388-0.93c4.217,0.01,8.435,0.369,12.647,0.658c1.71,0.117,3.425,0.368,5.099,0.736  c0.976,0.214,1.93,0.079,2.889,0.161c0.319,0.027,0.677-0.317,1.006-0.51c0.25-0.147,0.468-0.352,0.724-0.483  c0.685-0.352,1.053-1.036,0.913-1.783c-0.149-0.795-0.793-0.633-1.331-0.681c-0.61-0.054-1.325,0.153-1.545-0.781  c-0.043-0.18-0.556-0.335-0.86-0.352c-0.988-0.057-1.98-0.04-2.971-0.059c-3.575-0.066-7.15-0.111-10.724-0.21  c-4.047-0.112-8.092-0.274-12.137-0.415C45.064,15.665,45.063,15.698,45.063,15.732z M41.776,32.574  c-2.754,0.08-5.503,0.352-8.257,0.451c-0.94,0.034-1.703,0.087-2.016,1.154c-0.073,0.248-0.45,0.392-0.594,0.638  c-0.207,0.355-0.448,0.755-0.461,1.143c-0.034,0.996,1.099,1.664,2.262,1.459c1.818-0.319,3.636-0.666,5.468-0.876  c4.721-0.542,9.466-0.515,14.202-0.345c3.571,0.128,7.139,0.4,10.7,0.702c2.006,0.17,4.042,0.112,6.009,0.664  c0.53,0.149,0.95-0.114,1.229-0.522c0.43-0.629,0.829-1.284,1.182-1.959c0.269-0.515,0.322-1.081-0.04-1.597  c-0.358-0.511-0.873-0.443-1.404-0.37c-0.594,0.081-1.197,0.177-1.792,0.155c-5.986-0.222-11.972-0.466-18.248-0.716  C47.462,32.556,44.617,32.492,41.776,32.574z M87.003,90.717c0.04,1.101-0.743,1.707-1.69,1.345  c-0.058,0.331-0.259,0.641-0.658,0.848c-2.037,1.062-4.241,0.449-6.424,0.454c-3.706,0.008-7.41,0.081-11.116,0  c-0.24-0.005-0.443-0.065-0.617-0.157c-4.562,0.185-9.123,0.374-13.683,0.597c-3.014,0.147-6.032,0.293-9.034,0.578  c-6.179,0.586-12.35,1.257-18.522,1.919c-0.706,0.076-1.398,0.189-1.95,0.833c-0.471,0.549-1.501,0.466-1.811-0.155  c-0.411-0.824-1.046-0.775-1.73-0.797c-0.008,0-0.015,0-0.023-0.001c-0.247-0.204-0.477-0.426-0.696-0.658  c-0.716-3.924-0.996-7.873-1.349-11.814c0.153-3.911,0.121-7.825,0.058-11.742c-0.069-4.269,0.017-8.54,0.074-12.81  c0.055-4.094,0.104-8.189,0.26-12.28c0.198-5.169,0.476-10.335,0.77-15.5c0.271-4.778,0.604-9.552,0.92-14.327  c0.051-0.774,0.153-1.544,0.232-2.316c0.066-0.639,0.059-1.298,0.757-1.672c0.152-0.081,0.247-0.357,0.279-0.558  c0.171-1.064,0.314-2.132,0.466-3.199c0.095-0.669-0.208-0.998-0.848-1.214c-1.339-0.451-1.63-1.618-0.706-2.687  c0.574-0.664,1.237-1.006,2.203-1.09c5.637-0.49,11.276-0.192,16.914-0.208c4.652-0.014,9.305-0.102,13.957-0.171  c2.796-0.041,5.594-0.039,8.386-0.181c3.701-0.187,7.398-0.484,11.094-0.756c2.018-0.149,4.03-0.378,6.049-0.496  c0.616-0.036,1.247,0.174,1.87,0.277c0.337,0.056,0.67,0.158,1.009,0.176c0.32,0.017,0.64,0.027,0.961,0.031  c0.076,0.059,0.161,0.112,0.268,0.147c0.346,0.114,0.661,0.287,0.943,0.503c0.271,0.508,0.509,1.036,0.732,1.57  c-0.485,0.568-0.459,1.142-0.004,1.79c0.139,0.198,0.246,0.508,0.199,0.731c-0.35,1.643-0.118,3.304-0.141,4.949  c-0.037,2.623,0.155,5.248,0.236,7.873c0.03,0.99,0.08,1.984,0.017,2.97c-0.123,1.931-0.327,3.857-0.48,5.786  c-0.054,0.681-0.087,1.366-0.077,2.048c0.015,1.12,0.053,2.241,0.114,3.36c0.232,4.257,0.185,8.514,0.124,12.776  c-0.041,2.883,0.193,5.771,0.354,8.655c0.295,5.294,0.581,10.59,0.955,15.879c0.31,4.383,0.764,8.756,1.108,13.137  C86.897,87.01,86.936,88.865,87.003,90.717z M80.091,85.257c-0.148-1.631-0.288-3.264-0.478-4.89  c-0.73-6.257-0.988-12.547-1.294-18.832c-0.243-4.995-0.516-9.99-0.669-14.988c-0.159-5.214-0.251-10.432-0.259-15.648  c-0.008-5.389,0.116-10.778,0.196-16.168c0.01-0.69,0.375-1.105,0.927-1.108c-0.117-1.545-0.232-3.09-0.294-4.638  c-0.892-0.014-1.785-0.008-2.676,0.032c-4.651,0.207-9.3,0.458-13.951,0.666c-1.981,0.088-3.965,0.184-5.946,0.148  c-3.92-0.071-7.843-0.153-11.756-0.378c-3.05-0.176-6.073-0.695-9.151-0.605c-2.325,0.068-4.655-0.068-6.983-0.104  c-0.854-0.013-1.709-0.002-2.839-0.002c-0.255,2.017-0.634,3.971-0.723,5.938c-0.197,4.347-0.251,8.701-0.356,13.052  c-0.018,0.755-0.003,1.511-0.003,2.38c0.012-0.011,0.022-0.022,0.033-0.033c-0.126,5.271-0.396,10.54-0.211,15.814  c0.025,0.719,0.071,1.435,0.12,2.152c-0.412,3.523-0.883,7.046-0.96,10.576c-0.141,6.462,0.094,12.935,0.253,19.401  c0.094,3.835,0.347,7.666,0.536,11.499c0.016,0.327,0.09,0.652,0.142,1.012c0.655,0,1.214,0.042,1.765-0.007  c3.221-0.286,6.444-0.561,9.659-0.9c5.915-0.625,11.816-1.395,17.74-1.911c5.409-0.472,10.838-0.742,16.263-0.997  c2.884-0.136,5.778-0.046,8.668-0.072c0.718-0.007,1.435-0.068,2.251-0.11C80.096,86.012,80.125,85.632,80.091,85.257z"></path></svg>