<svg xmlns="http://www.w3.org/2000/svg" xmlns:xlink="http://www.w3.org/1999/xlink" version="1.1" x="0px" y="0px" viewBox="0 0 24 24" style="enable-background:new 0 0 24 24;" xml:space="preserve"><g><g><path d="M19.5,19.5H2.777c0.346,0.595,0.984,1,1.723,1h17c1.105,0,2-0.895,2-2v-3C23.5,17.706,21.706,19.5,19.5,19.5z"></path><path d="M21.5,21h-17c-0.88,0-1.706-0.479-2.155-1.249c-0.09-0.154-0.09-0.346-0.001-0.5C2.433,19.096,2.598,19,2.777,19H19.5    c1.93,0,3.5-1.57,3.5-3.5c0-0.276,0.224-0.5,0.5-0.5s0.5,0.224,0.5,0.5v3C24,19.878,22.878,21,21.5,21z M4.5,20h17    c0.827,0,1.5-0.673,1.5-1.5v-0.174C22.174,19.346,20.912,20,19.5,20H4.5z"></path></g><g><path d="M3.61,14.385c0.002,0.002,0.002,0.005,0.004,0.007c0.01,0.01,0.023,0.017,0.034,0.028    C3.636,14.407,3.622,14.397,3.61,14.385z"></path><path d="M9.529,15.607c0.034-0.014,0.07-0.024,0.104-0.038C9.599,15.584,9.563,15.594,9.529,15.607z"></path><path d="M8.538,15.899c0.019-0.004,0.039-0.005,0.058-0.009C8.577,15.894,8.557,15.895,8.538,15.899z"></path><path d="M10.476,15.119c0.032-0.02,0.065-0.037,0.096-0.058C10.541,15.081,10.507,15.098,10.476,15.119z"></path><path d="M9.16,11.355C9.672,10.897,10,10.239,10,9.5C10,8.122,8.878,7,7.5,7S5,8.122,5,9.5c0,0.739,0.328,1.397,0.84,1.855    c-0.826,0.356-1.525,0.969-1.988,1.759C4.669,14.251,5.995,15,7.5,15s2.831-0.749,3.648-1.886    C10.685,12.324,9.986,11.711,9.16,11.355z"></path><path d="M6.462,15.899c-0.019-0.004-0.039-0.005-0.058-0.009C6.423,15.894,6.443,15.895,6.462,15.899z"></path><path d="M4.524,15.119c-0.031-0.02-0.065-0.037-0.096-0.058C4.46,15.081,4.493,15.098,4.524,15.119z"></path><path d="M11.352,14.419c0.01-0.01,0.023-0.017,0.034-0.028c0.002-0.002,0.002-0.005,0.004-0.007    C11.378,14.397,11.364,14.407,11.352,14.419z"></path><path d="M5.471,15.607c-0.034-0.014-0.07-0.024-0.104-0.038C5.401,15.584,5.437,15.594,5.471,15.607z"></path></g><path d="M19.5,3h-17C1.122,3,0,4.122,0,5.5v10C0,16.878,1.122,18,2.5,18h17c1.378,0,2.5-1.122,2.5-2.5v-10   C22,4.122,20.878,3,19.5,3z M7.5,16C4.467,16,2,13.533,2,10.5S4.467,5,7.5,5S13,7.467,13,10.5S10.533,16,7.5,16z M19.5,14h-5   c-0.276,0-0.5-0.224-0.5-0.5s0.224-0.5,0.5-0.5h5c0.276,0,0.5,0.224,0.5,0.5S19.776,14,19.5,14z M19.5,11h-5   c-0.276,0-0.5-0.224-0.5-0.5s0.224-0.5,0.5-0.5h5c0.276,0,0.5,0.224,0.5,0.5S19.776,11,19.5,11z M19.5,8h-5   C14.224,8,14,7.776,14,7.5S14.224,7,14.5,7h5C19.776,7,20,7.224,20,7.5S19.776,8,19.5,8z"></path></g></svg>