<svg xmlns="http://www.w3.org/2000/svg" xmlns:xlink="http://www.w3.org/1999/xlink" version="1.1" x="0px" y="0px" viewBox="0 0 128 128" enable-background="new 0 0 128 128" xml:space="preserve"><g><path fill="#000000" d="M77.1,58.6L109.7,26l5.4-5.4C89-5.5,46.7-5.5,20.6,20.6c-26.1,26.1-26.1,68.4,0,94.5l5.4-5.4l32.6-32.6   L77.1,58.6z"></path><path fill="#000000" d="M120.7,73.2l6.3-5.4l-5.9-5l4.8-6l-7.3-4.1l3.8-7.4l-7.4-2.4l2.2-7.4l-8.3-1l0-0.5L80,62.9   c1.9,4.7,0.9,10.3-2.9,14.1c-3.8,3.8-9.4,4.8-14.1,2.9l-29.2,29.2l0.8,7.6l8.1-2.2l2.6,7.9l6.9-3.5l3.7,6.8l6.6-5.1l5.4,6.3l5-5.9   l6,4.8l4.1-7.3l7.4,3.8l2.4-7.4l7.4,2.2l1-8.3l8.3,0.7l-0.6-7.7l7.7-0.8l-2.2-8.1l7.9-2.6l-3.5-6.9l6.8-3.7L120.7,73.2z"></path></g></svg>