<svg xmlns="http://www.w3.org/2000/svg" xmlns:xlink="http://www.w3.org/1999/xlink" xmlns:sketch="http://www.bohemiancoding.com/sketch/ns" viewBox="0 0 100 100" version="1.1" x="0px" y="0px"><title>100x100</title><desc>Created with Sketch.</desc><g stroke="none" stroke-width="1" fill="none" fill-rule="evenodd" sketch:type="MSPage"><path d="M36.7975957,93.3437915 C40.2117884,93.9612215 44.1807718,94.4927795 47.6819199,94.3251163 C51.9606453,94.1197228 55.9627704,91.5278157 60.3054361,91.562631 C64.6342926,91.5974463 69.1069311,94.3258659 73.131904,91.1615055 C77.5378404,87.6977169 78.3654652,77.8270812 75.7093496,72.9806756 C72.2169054,66.6093935 69.9733887,64.3554779 63.1983147,63.4345385 C62.0740875,63.281701 60.9489396,63.1021274 59.8230386,62.921471 C63.8208118,61.8879231 66.5443826,59.5923625 68.1596276,55.5108107 C71.5293802,46.9970553 69.977657,31.3955556 57.3632631,33.7307623 C56.6861993,33.8560307 56.0521529,34.0107006 55.4443019,34.1857766 C57.8156154,27.9069465 53.5909547,21.7854516 47.9625373,19.4820617 C47.3952767,19.2497654 46.7527774,19.0684427 46.0713616,18.9332627 L46.2998393,18.7057973 C56.9407887,17.1338617 50.8914033,3.5400718 40.721302,5.92308708 C36.1436307,6.99569799 33.2905892,9.77942232 34.6956849,14.8320544 C35.5237281,17.8100947 37.1016467,18.8899518 39.1301601,19.2405202 C38.7722118,19.3584591 38.4335125,19.4936391 38.1228498,19.6483089 C36.6938183,20.3599402 35.3941738,21.9627764 34.1596412,22.9745855 C33.5982389,23.4347637 31.1639894,25.3112081 30.9642179,25.6925105 C27.1140765,33.0546959 37.6701628,38.1151573 43.2020002,38.8795945 C43.9790754,38.9852065 44.8930697,39.0063622 45.86456,38.9479758 C41.2512362,41.4326051 35.1978336,42.012388 31.2634986,45.4455258 C24.8632786,51.030049 31.7601236,61.8761792 39.618416,63.5410666 C36.564515,64.0081579 33.5370605,64.3928752 30.5791536,64.8789567 C23.4301462,66.054431 23.8116118,71.6197141 22.7952629,79.0391199 C22.3807391,88.8816868 29.0899479,91.9501802 36.7975957,93.3437915 Z" fill="#000000" sketch:type="MSShapeGroup"></path></g></svg>